# xmcd CD database file generated by OrangeCD 5.2
#
# Track frame offsets:
#	150
#	12927
#	28967
#	41780
#	57145
#	70517
#	84455
#	105132
#	117955
#	133945
#	149440
#	160417
#	171490
#
# Disc length: 2450 seconds
#
# Revision: 0
# Processed by: cddbd v1.5.1PL0 Copyright (c) Steve Scherf et al.
# Submitted via: OrangeCD 5.2
#
DISCID=b209900d
DTITLE=PercySledge - GreatestHits
DYEAR=1900
DGENRE=R&B
TTITLE0=SuddenStop
TTITLE1=Walkin'InTheSun
TTITLE2=CoverMe
TTITLE3=WarmAndTender
TTITLE4=WhenAManLovesAWoman
TTITLE5=MySpecialPrayer
TTITLE6=GoodLife,The
TTITLE7=ItTearsMeUp
TTITLE8=JustOutOfReach
TTITLE9=OutOfLeftField
TTITLE10=ThiefInTheNight
TTITLE11=You'rePouringWaterOnADrowningMan
TTITLE12=MyAdorableOne
EXTD=
EXTT0=
EXTT1=
EXTT2=
EXTT3=
EXTT4=
EXTT5=
EXTT6=
EXTT7=
EXTT8=
EXTT9=
EXTT10=
EXTT11=
EXTT12=
PLAYORDER=
